<?xml version="1.0" encoding="utf-8"?>
<!-- Generator: Adobe Illustrator 24.2.0, SVG Export Plug-In . SVG Version: 6.00 Build 0)  -->
<svg version="1.1" id="Layer_1" xmlns="http://www.w3.org/2000/svg" xmlns:xlink="http://www.w3.org/1999/xlink" x="0px" y="0px"
	 viewBox="0 0 1920 1162.44" style="enable-background:new 0 0 1920 1162.44;" xml:space="preserve">
<style type="text/css">
	.st0{fill:#1496BB;}
	.st1{fill:none;}
</style>
<g>
	<g>
		<path class="st0" d="M1084.2,589.18c-46.91,37.37-131.37,9.41-188.67-62.49c-57.29-71.89-65.69-160.47-18.78-197.86
			c17.06-13.59,39.08-18.54,62.96-15.9c-12.89,1.45-24.67,5.97-34.52,13.82c-40.6,32.35-33.32,109.01,16.25,171.22
			c49.58,62.21,122.67,86.41,163.27,54.06c18.99-15.13,27.5-39.97,26.1-68.48C1120.29,527.28,1111.87,567.13,1084.2,589.18z"/>
		<path class="st0" d="M1089.88,451.36c-5.44-18.05-15.01-36.47-28.57-53.46c-40.82-51.22-102.27-70.14-137.26-42.26
			c-22.28,17.76-28.46,50.23-19.45,84.7c-17.71-42.05-14.57-83.86,11.39-104.53c34.82-27.75,97.52-7,140.05,46.38
			C1073.69,404.3,1085.09,428.55,1089.88,451.36z"/>
		<path class="st0" d="M1074.75,365.81c-1.97,0.25-3.89,0.03-5.65-0.58c-13.82,17-186.26,227.21-255.38,227.65
			c-72.04,0.47-29.41-107.76,9.22-141.62c0,0-43.26,88.03-3.14,97.94c42.43,10.47,180.98-108.39,243.29-188.29
			c-1.31-1.72-2.2-3.81-2.49-6.11c-0.87-6.94,4.07-13.28,11.01-14.15c6.94-0.87,13.28,4.07,14.15,11.01
			C1086.63,358.63,1081.71,364.95,1074.75,365.81z"/>
		<path class="st0" d="M1038.45,422.63c-27.45,58.73-80.48,123.5-100.71,147.2c-4.93,5.78-4.52,14.34,0.82,19.74
			c21.44,21.66,49.55,31,49.55,31H808.32c23.64-10.97,47.7-26.19,71.25-43.83c0.09-0.05,0.17-0.12,0.25-0.18
			c12.33-9.22,24.52-19.11,36.45-29.38c0.58-0.51,1.15-1,1.74-1.52c17.77-15.75,37.23-34.63,58.47-56.68
			c23.9-24.82,46.18-49.8,63.63-69.96C1039.57,420.23,1039.02,421.43,1038.45,422.63z"/>
		<g>
			<g>
				<g>
					<g>
						<path class="st0" d="M1125.26,285.79c-21.53-16.77-48.1-22.8-73.17-18.86l1.41,10.52c22.32-3.57,46.03,1.76,65.23,16.72
							c19.22,14.97,30.18,36.64,32.18,59.15l10.55-1.21C1159.15,326.84,1146.81,302.57,1125.26,285.79z"/>
					</g>
					<g>
						<path class="st0" d="M1110.76,304.41c-16.35-12.74-36.54-17.21-55.53-14.07l1.41,10.52c16.24-2.79,33.59,1.02,47.59,11.93
							c14.01,10.91,21.95,26.79,23.22,43.22l10.55-1.21C1136.39,335.63,1127.11,317.15,1110.76,304.41z"/>
					</g>
					<g>
						<path class="st0" d="M1096.25,323.04c-11.16-8.69-24.98-11.65-37.9-9.32l1.41,10.56c10.18-1.97,21.15,0.28,29.96,7.14
							c8.83,6.88,13.7,16.95,14.28,27.31l10.58-1.21C1113.66,344.41,1107.41,331.73,1096.25,323.04z"/>
					</g>
				</g>
			</g>
		</g>
	</g>
	<g>
		<g>
			<g>
				<path class="st0" d="M534.28,896.67c0-0.01-0.01-0.01-0.01-0.02"/>
			</g>
		</g>
		<g>
			<g>
				<path class="st0" d="M692.74,708.21c25.17,0,43.71,6.7,55.63,20.09c11.92,13.39,17.88,34.22,17.88,62.47
					c0,28.11-5.96,48.84-17.88,62.2c-11.92,13.36-30.46,20.03-55.63,20.03H659.3V708.21H692.74z M692.3,854.67
					c18.76,0,31.86-4.62,39.29-13.85c7.43-9.23,11.15-25.92,11.15-50.05c0-24.35-3.7-41.15-11.09-50.38
					c-7.39-9.23-20.51-13.85-39.35-13.85h-10.6v128.14H692.3z"/>
				<path class="st0" d="M891.96,713.84v22.63c-6.77-4.34-13.56-7.62-20.36-9.82c-6.81-2.21-13.67-3.31-20.58-3.31
					c-10.52,0-18.84,2.45-24.94,7.34c-6.11,4.89-9.16,11.5-9.16,19.81c0,7.28,2,12.84,6.01,16.67c4.01,3.83,11.5,7.03,22.46,9.6
					l11.7,2.65c15.45,3.61,26.71,9.27,33.77,17c7.06,7.73,10.6,18.25,10.6,31.57c0,15.67-4.86,27.63-14.57,35.87
					c-9.71,8.24-23.84,12.36-42.38,12.36c-7.73,0-15.49-0.83-23.29-2.48c-7.8-1.66-15.64-4.14-23.51-7.45v-23.73
					c8.46,5.37,16.46,9.31,24.01,11.81c7.54,2.5,15.14,3.75,22.79,3.75c11.26,0,20.01-2.52,26.27-7.56
					c6.25-5.04,9.38-12.09,9.38-21.14c0-8.24-2.15-14.53-6.46-18.87c-4.3-4.34-11.79-7.69-22.46-10.04l-11.92-2.76
					c-15.31-3.46-26.42-8.68-33.33-15.67c-6.92-6.99-10.38-16.37-10.38-28.15c0-14.72,4.95-26.51,14.85-35.37
					c9.9-8.87,23.05-13.3,39.46-13.3c6.33,0,12.99,0.72,19.98,2.15C876.88,708.81,884.24,710.97,891.96,713.84z"/>
				<path class="st0" d="M934.68,708.21h48.78c16.85,0,29.84,3.64,38.96,10.93c9.12,7.28,13.69,17.59,13.69,30.9
					c0,7.14-2.41,13.61-7.23,19.43c-4.82,5.81-12.05,9.46-21.69,10.93c10.82,1.62,19.3,6.24,25.44,13.85
					c6.14,7.62,9.22,18.78,9.22,33.5c0,14.94-4.89,26.21-14.68,33.83c-9.79,7.62-24.36,11.42-43.71,11.42h-48.78V708.21z
					 M957.08,726.53v45.25h25.94c10.74,0,18.52-2.06,23.34-6.18c4.82-4.12,7.23-9.31,7.23-15.56c0-8.31-2.37-14.31-7.12-17.99
					c-4.75-3.68-12.57-5.52-23.45-5.52H957.08z M957.08,789.88v64.79h26.38c12.95,0,22.19-2.26,27.7-6.79
					c5.52-4.53,8.28-11.98,8.28-22.35c0-13.69-2.91-23.05-8.72-28.09c-5.81-5.04-14.9-7.56-27.26-7.56H957.08z"/>
				<path class="st0" d="M1210.28,708.21h48.12c18.39,0,32.34,4.18,41.83,12.53c9.49,8.35,14.24,20.58,14.24,36.7
					c0,16.26-4.73,28.55-14.18,36.86c-9.46,8.32-23.42,12.47-41.89,12.47h-25.83v66.22h-22.3V708.21z M1232.57,726.53v61.92h25.83
					c10.3,0,18.34-2.72,24.12-8.17c5.78-5.44,8.66-13.06,8.66-22.85c0-9.79-2.87-17.38-8.61-22.79c-5.74-5.41-13.8-8.11-24.17-8.11
					H1232.57z"/>
				<path class="st0" d="M1359.5,749.82h51.98v107.39h40.29v15.78h-100.88v-15.78h40.29V765.6h-31.68V749.82z"/>
			</g>
			<g>
				<g>
					<path class="st0" d="M578.91,856.98c0,0.01-0.01,0.01-0.01,0.03"/>
					<polygon class="st0" points="561.16,757.69 551.62,745.39 542.08,757.69 542.08,789.6 498.37,813.43 551.62,708.21 
						604.87,813.43 561.16,789.6 					"/>
					<polygon class="st0" points="635.02,872.99 572.4,872.99 561.16,863.21 561.16,834.59 551.62,829.39 542.08,834.59 
						542.08,863.21 529.87,872.99 468.23,872.99 485.13,839.6 542.08,808.54 561.16,808.54 618.12,839.6 					"/>
				</g>
			</g>
			<g>
				<g>
					<path class="st0" d="M1368.89,643.26c-12.28-12.28-28.59-18.18-44.72-17.66l0.06,6.76c14.37-0.5,28.93,4.73,39.88,15.68
						c10.96,10.96,16.18,25.51,15.68,39.88l6.76,0.06C1387.07,671.85,1381.18,655.55,1368.89,643.26z"/>
				</g>
				<g>
					<path class="st0" d="M1358.27,653.88c-9.33-9.33-21.72-13.74-33.96-13.25l0.06,6.76c10.47-0.49,21.13,3.28,29.12,11.27
						c7.99,7.99,11.76,18.64,11.27,29.12l6.76,0.06C1372,675.61,1367.59,663.21,1358.27,653.88z"/>
				</g>
				<g>
					<path class="st0" d="M1347.64,664.51c-6.36-6.36-14.86-9.32-23.2-8.86l0.06,6.78c6.59-0.45,13.33,1.84,18.36,6.86
						c5.04,5.04,7.32,11.78,6.87,18.37l6.78,0.06C1356.96,679.37,1354.01,670.87,1347.64,664.51z"/>
				</g>
				<path class="st0" d="M1351.53,736.96c-20.27,2.78-41.54-3.61-57.12-19.2c-15.58-15.58-21.99-36.86-19.21-57.13l35.76,35.76
					l11.99-11.99c-0.63-2.31-0.04-4.87,1.77-6.68c2.68-2.68,7.03-2.68,9.71,0c2.69,2.69,2.69,7.04,0.01,9.72
					c-1.82,1.82-4.4,2.4-6.69,1.76l-11.99,11.99L1351.53,736.96z"/>
			</g>
			<rect x="1393.54" y="710.77" class="st0" width="17.94" height="22.52"/>
		</g>
	</g>
</g>
<rect class="st1" width="1920" height="1162.44"/>
</svg>
